<svg id="Layer_1" enable-background="new 0 0 512.011 512.011" height="512" viewBox="0 0 512.011 512.011" width="512" xmlns="http://www.w3.org/2000/svg"><g><path d="m338.7 333.803h-56.359v35.49c0 14.521-11.814 26.335-26.335 26.335s-26.335-11.814-26.335-26.335v-35.49h-56.359c-66.286 0-120.213 53.927-120.213 120.213v57.995h405.815v-57.995c-.001-66.286-53.928-120.213-120.214-120.213z" fill="#beebfa"/><path d="m458.913 454.016c0-66.286-53.927-120.213-120.213-120.213h-56.359v35.49c0 14.521-11.814 26.335-26.335 26.335v116.382h202.908v-57.994z" fill="#5ecef4"/><path d="m199.67 333.803v35.49c0 31.063 25.272 56.335 56.335 56.335s56.335-25.272 56.335-56.335v-35.49z" fill="#eb8"/><path d="m256.005 425.628c31.063 0 56.335-25.272 56.335-56.335v-35.49h-56.336z" fill="#e3a76f"/><path d="m353.453 0h-194.895c-38.349 0-69.548 31.199-69.548 69.548v104.37h333.99v-104.37c0-38.349-31.199-69.548-69.547-69.548z" fill="#ebebf0"/><path d="m423 69.548c0-38.349-31.199-69.548-69.547-69.548h-97.447v173.918h166.994z" fill="#e1e1e6"/><path d="m398.781 141.972h-35.783v92.326h35.783c25.455 0 46.163-20.708 46.163-46.163s-20.708-46.163-46.163-46.163z" fill="#eb8"/><path d="m398.781 141.972h-35.783v92.326h35.783c25.455 0 46.163-20.708 46.163-46.163s-20.708-46.163-46.163-46.163z" fill="#e3a76f"/><path d="m113.229 141.972c-25.455 0-46.163 20.708-46.163 46.163s20.708 46.163 46.163 46.163h35.783v-92.326z" fill="#eb8"/><path d="m256.005 0c-75.538 0-136.993 61.455-136.993 136.993v89.817c0 75.539 61.455 136.993 136.993 136.993s136.993-61.455 136.993-136.993v-89.817c.001-75.538-61.455-136.993-136.993-136.993z" fill="#f2d1a5"/><path d="m256.005 0v363.803c75.538 0 136.993-61.455 136.993-136.993v-89.817c.001-75.538-61.455-136.993-136.993-136.993z" fill="#eb8"/><g><path d="m291.233 170.157h30v30.002h-30z" fill="#373c41"/></g><g><path d="m185.9 170.157h30v30.002h-30z" fill="#373c41"/></g><path d="m283.911 224.318h-55.811c-30.413 0-55.156 24.743-55.156 55.156v28.211h42.905c15.811 0 30.09-6.688 40.156-17.383 10.066 10.695 24.345 17.383 40.156 17.383h42.905v-28.211c0-30.413-24.742-55.156-55.155-55.156z" fill="#ebebf0"/><g><path d="m291.233 170.157h30v30.002h-30z" fill="#292d31"/></g><path d="m296.161 307.685h42.905v-28.211c0-30.413-24.743-55.156-55.156-55.156h-27.905v65.984c10.066 10.695 24.345 17.383 40.156 17.383z" fill="#e1e1e6"/></g></svg>